<?xml version="1.0" encoding="UTF-8"?>
<svg width="240px" height="240px" viewBox="0 0 240 240" version="1.1" xmlns="http://www.w3.org/2000/svg" xmlns:xlink="http://www.w3.org/1999/xlink">
    <title>PlusPatterb</title>
    <g id="Home" stroke="none" stroke-width="1" fill="none" fill-rule="evenodd">
        <g id="Desktop-HD" transform="translate(-880.000000, -1821.000000)">
            <g id="PlusPatterb" transform="translate(880.000000, 1821.000000)">
                <g id="plus" transform="translate(10.000000, 70.000000)" fill="#000000" fill-rule="nonzero">
                    <path d="M36,34 L36,30 L34,30 L34,34 L30,34 L30,36 L34,36 L34,40 L36,40 L36,36 L40,36 L40,34 L36,34 Z M36,4 L36,0 L34,0 L34,4 L30,4 L30,6 L34,6 L34,10 L36,10 L36,6 L40,6 L40,4 L36,4 Z M6,34 L6,30 L4,30 L4,34 L0,34 L0,36 L4,36 L4,40 L6,40 L6,36 L10,36 L10,34 L6,34 Z M6,4 L6,0 L4,0 L4,4 L0,4 L0,6 L4,6 L4,10 L6,10 L6,6 L10,6 L10,4 L6,4 Z" id="Shape"></path>
                </g>
                <g id="plus" transform="translate(70.000000, 70.000000)" fill="#000000" fill-rule="nonzero">
                    <path d="M36,34 L36,30 L34,30 L34,34 L30,34 L30,36 L34,36 L34,40 L36,40 L36,36 L40,36 L40,34 L36,34 Z M36,4 L36,0 L34,0 L34,4 L30,4 L30,6 L34,6 L34,10 L36,10 L36,6 L40,6 L40,4 L36,4 Z M6,34 L6,30 L4,30 L4,34 L0,34 L0,36 L4,36 L4,40 L6,40 L6,36 L10,36 L10,34 L6,34 Z M6,4 L6,0 L4,0 L4,4 L0,4 L0,6 L4,6 L4,10 L6,10 L6,6 L10,6 L10,4 L6,4 Z" id="Shape"></path>
                </g>
                <g id="plus" transform="translate(10.000000, 10.000000)" fill="#000000" fill-rule="nonzero">
                    <path d="M36,34 L36,30 L34,30 L34,34 L30,34 L30,36 L34,36 L34,40 L36,40 L36,36 L40,36 L40,34 L36,34 Z M36,4 L36,0 L34,0 L34,4 L30,4 L30,6 L34,6 L34,10 L36,10 L36,6 L40,6 L40,4 L36,4 Z M6,34 L6,30 L4,30 L4,34 L0,34 L0,36 L4,36 L4,40 L6,40 L6,36 L10,36 L10,34 L6,34 Z M6,4 L6,0 L4,0 L4,4 L0,4 L0,6 L4,6 L4,10 L6,10 L6,6 L10,6 L10,4 L6,4 Z" id="Shape"></path>
                </g>
                <g id="plus" transform="translate(70.000000, 10.000000)" fill="#000000" fill-rule="nonzero">
                    <path d="M36,34 L36,30 L34,30 L34,34 L30,34 L30,36 L34,36 L34,40 L36,40 L36,36 L40,36 L40,34 L36,34 Z M36,4 L36,0 L34,0 L34,4 L30,4 L30,6 L34,6 L34,10 L36,10 L36,6 L40,6 L40,4 L36,4 Z M6,34 L6,30 L4,30 L4,34 L0,34 L0,36 L4,36 L4,40 L6,40 L6,36 L10,36 L10,34 L6,34 Z M6,4 L6,0 L4,0 L4,4 L0,4 L0,6 L4,6 L4,10 L6,10 L6,6 L10,6 L10,4 L6,4 Z" id="Shape"></path>
                </g>
                <g id="plus" transform="translate(130.000000, 70.000000)" fill="#000000" fill-rule="nonzero">
                    <path d="M36,34 L36,30 L34,30 L34,34 L30,34 L30,36 L34,36 L34,40 L36,40 L36,36 L40,36 L40,34 L36,34 Z M36,4 L36,0 L34,0 L34,4 L30,4 L30,6 L34,6 L34,10 L36,10 L36,6 L40,6 L40,4 L36,4 Z M6,34 L6,30 L4,30 L4,34 L0,34 L0,36 L4,36 L4,40 L6,40 L6,36 L10,36 L10,34 L6,34 Z M6,4 L6,0 L4,0 L4,4 L0,4 L0,6 L4,6 L4,10 L6,10 L6,6 L10,6 L10,4 L6,4 Z" id="Shape"></path>
                </g>
                <g id="plus" transform="translate(190.000000, 70.000000)" fill="#000000" fill-rule="nonzero">
                    <path d="M36,34 L36,30 L34,30 L34,34 L30,34 L30,36 L34,36 L34,40 L36,40 L36,36 L40,36 L40,34 L36,34 Z M36,4 L36,0 L34,0 L34,4 L30,4 L30,6 L34,6 L34,10 L36,10 L36,6 L40,6 L40,4 L36,4 Z M6,34 L6,30 L4,30 L4,34 L0,34 L0,36 L4,36 L4,40 L6,40 L6,36 L10,36 L10,34 L6,34 Z M6,4 L6,0 L4,0 L4,4 L0,4 L0,6 L4,6 L4,10 L6,10 L6,6 L10,6 L10,4 L6,4 Z" id="Shape"></path>
                </g>
                <g id="plus" transform="translate(130.000000, 10.000000)" fill="#000000" fill-rule="nonzero">
                    <path d="M36,34 L36,30 L34,30 L34,34 L30,34 L30,36 L34,36 L34,40 L36,40 L36,36 L40,36 L40,34 L36,34 Z M36,4 L36,0 L34,0 L34,4 L30,4 L30,6 L34,6 L34,10 L36,10 L36,6 L40,6 L40,4 L36,4 Z M6,34 L6,30 L4,30 L4,34 L0,34 L0,36 L4,36 L4,40 L6,40 L6,36 L10,36 L10,34 L6,34 Z M6,4 L6,0 L4,0 L4,4 L0,4 L0,6 L4,6 L4,10 L6,10 L6,6 L10,6 L10,4 L6,4 Z" id="Shape"></path>
                </g>
                <g id="plus" transform="translate(190.000000, 10.000000)" fill="#000000" fill-rule="nonzero">
                    <path d="M36,34 L36,30 L34,30 L34,34 L30,34 L30,36 L34,36 L34,40 L36,40 L36,36 L40,36 L40,34 L36,34 Z M36,4 L36,0 L34,0 L34,4 L30,4 L30,6 L34,6 L34,10 L36,10 L36,6 L40,6 L40,4 L36,4 Z M6,34 L6,30 L4,30 L4,34 L0,34 L0,36 L4,36 L4,40 L6,40 L6,36 L10,36 L10,34 L6,34 Z M6,4 L6,0 L4,0 L4,4 L0,4 L0,6 L4,6 L4,10 L6,10 L6,6 L10,6 L10,4 L6,4 Z" id="Shape"></path>
                </g>
                <g id="plus" transform="translate(130.000000, 190.000000)" fill="#000000" fill-rule="nonzero">
                    <path d="M36,34 L36,30 L34,30 L34,34 L30,34 L30,36 L34,36 L34,40 L36,40 L36,36 L40,36 L40,34 L36,34 Z M36,4 L36,0 L34,0 L34,4 L30,4 L30,6 L34,6 L34,10 L36,10 L36,6 L40,6 L40,4 L36,4 Z M6,34 L6,30 L4,30 L4,34 L0,34 L0,36 L4,36 L4,40 L6,40 L6,36 L10,36 L10,34 L6,34 Z M6,4 L6,0 L4,0 L4,4 L0,4 L0,6 L4,6 L4,10 L6,10 L6,6 L10,6 L10,4 L6,4 Z" id="Shape"></path>
                </g>
                <g id="plus" transform="translate(190.000000, 190.000000)" fill="#000000" fill-rule="nonzero">
                    <path d="M36,34 L36,30 L34,30 L34,34 L30,34 L30,36 L34,36 L34,40 L36,40 L36,36 L40,36 L40,34 L36,34 Z M36,4 L36,0 L34,0 L34,4 L30,4 L30,6 L34,6 L34,10 L36,10 L36,6 L40,6 L40,4 L36,4 Z M6,34 L6,30 L4,30 L4,34 L0,34 L0,36 L4,36 L4,40 L6,40 L6,36 L10,36 L10,34 L6,34 Z M6,4 L6,0 L4,0 L4,4 L0,4 L0,6 L4,6 L4,10 L6,10 L6,6 L10,6 L10,4 L6,4 Z" id="Shape"></path>
                </g>
                <g id="plus" transform="translate(130.000000, 130.000000)" fill="#000000" fill-rule="nonzero">
                    <path d="M36,34 L36,30 L34,30 L34,34 L30,34 L30,36 L34,36 L34,40 L36,40 L36,36 L40,36 L40,34 L36,34 Z M36,4 L36,0 L34,0 L34,4 L30,4 L30,6 L34,6 L34,10 L36,10 L36,6 L40,6 L40,4 L36,4 Z M6,34 L6,30 L4,30 L4,34 L0,34 L0,36 L4,36 L4,40 L6,40 L6,36 L10,36 L10,34 L6,34 Z M6,4 L6,0 L4,0 L4,4 L0,4 L0,6 L4,6 L4,10 L6,10 L6,6 L10,6 L10,4 L6,4 Z" id="Shape"></path>
                </g>
                <g id="plus" transform="translate(190.000000, 130.000000)" fill="#000000" fill-rule="nonzero">
                    <path d="M36,34 L36,30 L34,30 L34,34 L30,34 L30,36 L34,36 L34,40 L36,40 L36,36 L40,36 L40,34 L36,34 Z M36,4 L36,0 L34,0 L34,4 L30,4 L30,6 L34,6 L34,10 L36,10 L36,6 L40,6 L40,4 L36,4 Z M6,34 L6,30 L4,30 L4,34 L0,34 L0,36 L4,36 L4,40 L6,40 L6,36 L10,36 L10,34 L6,34 Z M6,4 L6,0 L4,0 L4,4 L0,4 L0,6 L4,6 L4,10 L6,10 L6,6 L10,6 L10,4 L6,4 Z" id="Shape"></path>
                </g>
                <g id="plus" transform="translate(10.000000, 190.000000)" fill="#000000" fill-rule="nonzero">
                    <path d="M36,34 L36,30 L34,30 L34,34 L30,34 L30,36 L34,36 L34,40 L36,40 L36,36 L40,36 L40,34 L36,34 Z M36,4 L36,0 L34,0 L34,4 L30,4 L30,6 L34,6 L34,10 L36,10 L36,6 L40,6 L40,4 L36,4 Z M6,34 L6,30 L4,30 L4,34 L0,34 L0,36 L4,36 L4,40 L6,40 L6,36 L10,36 L10,34 L6,34 Z M6,4 L6,0 L4,0 L4,4 L0,4 L0,6 L4,6 L4,10 L6,10 L6,6 L10,6 L10,4 L6,4 Z" id="Shape"></path>
                </g>
                <g id="plus" transform="translate(70.000000, 190.000000)" fill="#000000" fill-rule="nonzero">
                    <path d="M36,34 L36,30 L34,30 L34,34 L30,34 L30,36 L34,36 L34,40 L36,40 L36,36 L40,36 L40,34 L36,34 Z M36,4 L36,0 L34,0 L34,4 L30,4 L30,6 L34,6 L34,10 L36,10 L36,6 L40,6 L40,4 L36,4 Z M6,34 L6,30 L4,30 L4,34 L0,34 L0,36 L4,36 L4,40 L6,40 L6,36 L10,36 L10,34 L6,34 Z M6,4 L6,0 L4,0 L4,4 L0,4 L0,6 L4,6 L4,10 L6,10 L6,6 L10,6 L10,4 L6,4 Z" id="Shape"></path>
                </g>
                <g id="plus" transform="translate(10.000000, 130.000000)" fill="#000000" fill-rule="nonzero">
                    <path d="M36,34 L36,30 L34,30 L34,34 L30,34 L30,36 L34,36 L34,40 L36,40 L36,36 L40,36 L40,34 L36,34 Z M36,4 L36,0 L34,0 L34,4 L30,4 L30,6 L34,6 L34,10 L36,10 L36,6 L40,6 L40,4 L36,4 Z M6,34 L6,30 L4,30 L4,34 L0,34 L0,36 L4,36 L4,40 L6,40 L6,36 L10,36 L10,34 L6,34 Z M6,4 L6,0 L4,0 L4,4 L0,4 L0,6 L4,6 L4,10 L6,10 L6,6 L10,6 L10,4 L6,4 Z" id="Shape"></path>
                </g>
                <g id="plus" transform="translate(70.000000, 130.000000)" fill="#000000" fill-rule="nonzero">
                    <path d="M36,34 L36,30 L34,30 L34,34 L30,34 L30,36 L34,36 L34,40 L36,40 L36,36 L40,36 L40,34 L36,34 Z M36,4 L36,0 L34,0 L34,4 L30,4 L30,6 L34,6 L34,10 L36,10 L36,6 L40,6 L40,4 L36,4 Z M6,34 L6,30 L4,30 L4,34 L0,34 L0,36 L4,36 L4,40 L6,40 L6,36 L10,36 L10,34 L6,34 Z M6,4 L6,0 L4,0 L4,4 L0,4 L0,6 L4,6 L4,10 L6,10 L6,6 L10,6 L10,4 L6,4 Z" id="Shape"></path>
                </g>
                <rect id="Rectangle" x="230" y="0" width="10" height="240"></rect>
                <rect id="Rectangle" x="0" y="0" width="10" height="240"></rect>
            </g>
        </g>
    </g>
</svg>